<svg width="318" height="23" viewBox="0 0 318 23" fill="none" xmlns="http://www.w3.org/2000/svg">
<path d="M30.84 0.940014L25.35 22H19.14L15.78 8.14001L12.3 22H6.09L0.75 0.940014H6.24L9.27 16.27L13.02 0.940014H18.66L22.26 16.27L25.32 0.940014H30.84Z" fill="white"/>
<path d="M51.6527 0.940014V22H46.5227V13.33H38.5427V22H33.4127V0.940014H38.5427V9.19001H46.5227V0.940014H51.6527Z" fill="white"/>
<path d="M73.4161 0.940014L66.1261 15.04V22H60.9961V15.04L53.7061 0.940014H59.5261L63.6061 9.76001L67.6561 0.940014H73.4161Z" fill="white"/>
<path d="M94.0505 22L86.9705 12.7V22H81.8405V0.940014H86.9705V10.18L93.9905 0.940014H100.02L91.8605 11.26L100.32 22H94.0505Z" fill="white"/>
<path d="M107.888 0.940014V22H102.758V0.940014H107.888Z" fill="white"/>
<path d="M116.736 18.04H123.456V22H111.606V0.940014H116.736V18.04Z" fill="white"/>
<path d="M131.033 18.04H137.753V22H125.903V0.940014H131.033V18.04Z" fill="white"/>
<path d="M145.33 5.05001V9.31001H152.2V13.27H145.33V17.89H153.1V22H140.2V0.940014H153.1V5.05001H145.33Z" fill="white"/>
<path d="M164.32 0.940014C166.54 0.940014 168.48 1.38001 170.14 2.26001C171.8 3.14001 173.08 4.38001 173.98 5.98001C174.9 7.56001 175.36 9.39001 175.36 11.47C175.36 13.53 174.9 15.36 173.98 16.96C173.08 18.56 171.79 19.8 170.11 20.68C168.45 21.56 166.52 22 164.32 22H156.43V0.940014H164.32ZM163.99 17.56C165.93 17.56 167.44 17.03 168.52 15.97C169.6 14.91 170.14 13.41 170.14 11.47C170.14 9.53001 169.6 8.02001 168.52 6.94001C167.44 5.86001 165.93 5.32001 163.99 5.32001H161.56V17.56H163.99Z" fill="white"/>
<path d="M197.695 18.28H189.835L188.575 22H183.205L190.825 0.940014H196.765L204.385 22H198.955L197.695 18.28ZM196.375 14.32L193.765 6.61001L191.185 14.32H196.375Z" fill="white"/>
<path d="M225.544 22H220.414L211.834 9.01001V22H206.704V0.940014H211.834L220.414 13.99V0.940014H225.544V22Z" fill="white"/>
<path d="M234.392 0.940014V22H229.262V0.940014H234.392Z" fill="white"/>
<path d="M261.96 0.940014V22H256.83V9.37001L252.12 22H247.98L243.24 9.34001V22H238.11V0.940014H244.17L250.08 15.52L255.93 0.940014H261.96Z" fill="white"/>
<path d="M278.759 18.28H270.899L269.639 22H264.269L271.889 0.940014H277.829L285.449 22H280.019L278.759 18.28ZM277.439 14.32L274.829 6.61001L272.249 14.32H277.439Z" fill="white"/>
<path d="M292.898 18.04H299.618V22H287.768V0.940014H292.898V18.04Z" fill="white"/>
<path d="M309.685 22.21C308.145 22.21 306.765 21.96 305.545 21.46C304.325 20.96 303.345 20.22 302.605 19.24C301.885 18.26 301.505 17.08 301.465 15.7H306.925C307.005 16.48 307.275 17.08 307.735 17.5C308.195 17.9 308.795 18.1 309.535 18.1C310.295 18.1 310.895 17.93 311.335 17.59C311.775 17.23 311.995 16.74 311.995 16.12C311.995 15.6 311.815 15.17 311.455 14.83C311.115 14.49 310.685 14.21 310.165 13.99C309.665 13.77 308.945 13.52 308.005 13.24C306.645 12.82 305.535 12.4 304.675 11.98C303.815 11.56 303.075 10.94 302.455 10.12C301.835 9.30001 301.525 8.23001 301.525 6.91001C301.525 4.95001 302.235 3.42001 303.655 2.32001C305.075 1.20001 306.925 0.640015 309.205 0.640015C311.525 0.640015 313.395 1.20001 314.815 2.32001C316.235 3.42001 316.995 4.96001 317.095 6.94001H311.545C311.505 6.26001 311.255 5.73001 310.795 5.35001C310.335 4.95001 309.745 4.75001 309.025 4.75001C308.405 4.75001 307.905 4.92001 307.525 5.26001C307.145 5.58001 306.955 6.05001 306.955 6.67001C306.955 7.35001 307.275 7.88001 307.915 8.26001C308.555 8.64001 309.555 9.05001 310.915 9.49001C312.275 9.95001 313.375 10.39 314.215 10.81C315.075 11.23 315.815 11.84 316.435 12.64C317.055 13.44 317.365 14.47 317.365 15.73C317.365 16.93 317.055 18.02 316.435 19C315.835 19.98 314.955 20.76 313.795 21.34C312.635 21.92 311.265 22.21 309.685 22.21Z" fill="white"/>
</svg>
